<?xml version="1.0" standalone="no"?>
<svg
  width="600"
  height="600"
  viewBox="0 0 600 600"
  xmlns="http://www.w3.org/2000/svg"
>
  <g transform="translate(300,300)">
    <path d="M73.5,-130.8C103.1,-95.4,140.2,-88.2,163.4,-66.2C186.5,-44.2,195.7,-7.4,196.6,32.6C197.6,72.5,190.2,115.5,166.1,144.8C142,174.1,101.2,189.7,62.7,190.5C24.2,191.3,-11.8,177.2,-46.6,164.4C-81.3,151.5,-114.7,139.9,-132,116.4C-149.2,92.8,-150.3,57.3,-146.1,26.6C-141.9,-4.2,-132.3,-30.1,-130.3,-69.8C-128.2,-109.5,-133.6,-162.8,-113.1,-202.3C-92.6,-241.8,-46.3,-267.4,-12.2,-248.5C22,-229.5,44,-166.1,73.5,-130.8Z" fill="#8ed1fc" />
  </g>
</svg>
  